/* XPM */
static char *_5145_63875e396abf0dd5e9f03483665bb94f73b4905e37dfda94597d6638686c2ca8[] = {
/* columns rows colors chars-per-pixel */
"64 64 84 1 ",
"  c #0D1716",
". c #0E1618",
"X c #121B1A",
"o c #17201F",
"O c #162021",
"+ c #1B2424",
"@ c #1F2827",
"# c #1E2728",
"$ c #1F2929",
"% c #202626",
"& c #232728",
"* c #232C2C",
"= c #292F2F",
"- c #27302F",
"; c #262F30",
": c #273132",
"> c #2B3434",
", c #2E3837",
"< c #2E3738",
"1 c #2E393A",
"2 c #313737",
"3 c #333C3C",
"4 c #36403F",
"5 c #38433F",
"6 c #363F40",
"7 c #383D40",
"8 c #364141",
"9 c #3A4444",
"0 c #3D4847",
"q c #3D4748",
"w c #3E4949",
"e c #414747",
"r c #424C4C",
"t c #484E4E",
"y c #44514E",
"u c #454F50",
"i c #465251",
"p c #4A5454",
"a c #4C5957",
"s c #4D5758",
"d c #4E5A59",
"f c #525C5C",
"g c #54615F",
"h c #565F60",
"j c #566261",
"k c #5A6565",
"l c #5D6867",
"z c #5D6768",
"x c #5E6A69",
"c c #626C6C",
"v c #64716F",
"b c #666F70",
"n c #667272",
"m c #6A7575",
"M c #6C7976",
"N c #6E7778",
"B c #6E7A79",
"V c #717D7C",
"C c #73807E",
"Z c #768281",
"A c #7A8584",
"S c #7B8986",
"D c #7D8788",
"F c #7D8A89",
"G c #818C8C",
"H c #82918E",
"J c #868F90",
"K c #898E91",
"L c #859191",
"P c #8A9494",
"I c #8D9997",
"U c #8E9B99",
"Y c #929C9C",
"T c #91A09D",
"R c #95A2A2",
"E c #9AA4A5",
"W c #A1ADAC",
"Q c #A1B0AD",
"! c #A6B3B1",
"~ c #ABB6B5",
"^ c #ADB9B7",
"/ c #B3BCBE",
"( c #B9C3C4",
") c #BFC7C9",
/* pixels */
"880,4->0y0a33re56<6susZxxs$$<zs;667u6766;77wqVNu;;ssO#6$666666:w",
">54,4544rr=552556;:is6wdNx66wh:66;6666667767hsus7uuhh6O6;99:666d",
"40,40p0,yrr33=32w6;6xVjsujxs66<;666666777;rruusrw77uzs6#6:66is8$",
"w0,0ypr54lg==fc=6q6#6du666sxNsw6;666667;;qr>q7q7u6:6qch;O;66j6:w",
"0950ywa0cP0it5e>666q66sswsjjzNF;7q766u67q77<92>76w66:6wcs:;6w666",
"0wiwpyd53YB&0502q66uq6husxjhbxDFu667676sp<:6>>337w66iw6wxbw6w66w",
"wgaayyg52v~332,3#;66wxNuuhh666susq7667uu797377,966usiuw6wdw6666q",
"aawdwyawryWZ,9e,;666snz66;sh6u66uhhu7uu7q7usq6e5q666psu6ujwwqwif",
"yyayaaaafafEk33>66$uRZshi6wpwp8wuss79e35932ttt056wi66uw66xbsszhh",
"15Ca0CxxCv0v/772;6hnRFsswwpifh9;7us7593359rtt59riu6666666#N77.w7",
"aa1ligaaTGpgKNur6isBR~Vswuwppw96uww79e5300yer0r96ww66:666O7z.77s",
"5y0gCaCFcIvtbcf7iBxFNNuiuswiwwwpu6w79t949ee5rer5:wsw6::;66#w7#67",
":aTvyyjlfdwzqNspBiFEdnz8wsswwzd9u7779t523rre5eee6usw;6;;#76#7#6#",
"FSTI1wiyxupZs2KhFfnBjdzjwuspsxxjq69e0r3=3e9e0te9w666666;6##66w7u",
"y0y^Cwwwwvss2sK)(VwjBsssjspjisnnq39t953,5535rt03w66666;66#667zzz",
"4:5CTxwd8wzrKDcpwxBdindszd9w66f<r199>>,2=3e5e5536666#667O66h77#7",
"5y1:CFwawwZFFw8jwwjnjdjshh666<:<yr4-24*,2y5,390366$#=,>5at3=*442",
"w0wwaFv:iFFw8wwwxfwxxwi866668<67p,o*>,%>>t,+2*+3#6s#2Xo45ar0=,ry",
"a0*0aa!FWFzhxjjfj88diij86<;7q66>,=,-*45443-,3-&*6$6;2k**=e3555pt",
":5y1:nFFmbhs888ww8:w68Bjquq<;17;=5t5>444r2=4>@%XO;9q5ya=X3ete355",
"ww11ZRnZmu<632&=6<6$188Fhu976799,-=5t0*225,><=<ep63,=,=ga933et4>",
"1dxFTdZvphw6=335666<816jJhppu7>*@oo%e5-4*,,21qfiOO=2=A0*ttsi5t2e",
"FQFnwZjw7q77337ti:w6:q6:pscs7ut3--*o*>**>+-2&7t++#*Vyot%>3snkc89",
"FZ8xZdw8;7>===&5xq:<6<66q7skr14p4**@o**-*--*&<7;>2qc39>95apcpjdc",
"8ddgayy4$,,-22%&6d6$5,*2>32rmc3*20-o2>*=+,;O=;r.shq666w6et7jzzYG",
"Zwgx1a1:4+*-==%2$ws8>=22=ee55yty2,%-4,>>>+##p37pp:6;66ii>79dAR(Y",
"Q!w:w:15--:5>=2>:#ww,,5223et529ar4,3,25-+>1>ObNbuO666666rbLzffVD",
"jFFy05:O@--5e&==$#<8y5o@2tr9r923ap5erpr*+*q><+sPu>66uw6BPbz9szsp",
"gwZC18O:**+2e=+2$:3--09,yr22ta95egcgayagd9+<<q3fb+>rsFFbzwsqsxsc",
"ajiSS1:$*o=o5t&&:;-+@9pa,5cIGlae,pggy,5cc+q;9;39p=9tNFh666sishii",
"1axgCyw1-*2+=t5%#9$*a9,lSIQIg0e95435e5e5r8:X;7+32*prww6ww66qfxzw",
"ywigCw1i5-o4%+t5349i9aHYTv53tt95e55trkmpsrw<$Oraa+926<wus666wwmz",
"su6uxhu:6sq#$<6wi88wiFFdwww6wdw9=5y0regvZa:yaCCC, 4a11a::15aaayC",
"qsuhhuszhiwwuwquwww88dBndwdw6ww8,4eer5yaaCCigagCgw:$1CCCC0g5ala0",
"usuuuqshi66uuuuuww88isjBdwnMwwp6r5ptyey5ydFFCxxCCClaa5:yCCCCUvy0",
"uq6qisss66666quwww8wjdjnzdBZkjfwr5yy53e5aidCCCxCCCCCgy5:5FCCg54a",
"q6wuussuwu6<6iu6wwww88wjZxxjsiwdr4t93,regawajZFxvlCCCCFC,yc54i5>",
"6wssuwwwwuw6qw6wwwiw18wwjjjdfswir59559ptw8yawdZjaCCCCCCCmgcrww50",
"w6uq6wwu16qq6:66wwwwwwwwwijdzns6935354wrwawwjijFCCCCagCC!^vpp00y",
"husw66qwq66w6qu61wwwiwwwidjwdZcq90yry0wyywwwaawZCggjgClCmIECy0gg",
"uqq6wu66w666w666w8w886w8iwsisjZZpripw88wwwawwixFCgpgpaar>=gPCfdc",
"q<www6wuw6qwuw6:w8188w611uju9ucbgywiw88wwwwwi8invlgi5rr245o5Gc,=",
"uw666u1w666666668w8w6816hwq699phzfpr8818wwwwiwwjlaw5055443,*aVp5",
"h6166wui66666<<6188w166wp8<9uw9pwap08888wwwwiwijcy,3544r55402aJN",
"Z1wsu1u16ww6666<6:16www6:1169rq9ww981888w8wawwxnyap00500r4r03eaK",
"FBw:1iwuwww666<<1166i661<7qq79rrxi88818ww8wawdxZatpggar5ea5eprgc",
"iZhuzB6quw6<:666666ww1<:<::<:dDWd918089wwwwdjdjxCy5gggaagreetvge",
"8sFNj8w6666666661:$116<:6wsbbGM98ww888881dxxvw8ZPlr0eacggyrye3ry",
"uwjBggdajCg1ywwyy00,51$55CFSv9,5ww8888iwwdFd6qsqFG55d0dxgy55500w",
"sjxBva8$1yCSayayi0yaxCavCC0002ae88iddd8jjFd66qq60Svwwwdgiw00050w",
"FFBdgw81w:$0aCgyawlFFCyCv5-5099edidijdwwZF<666664lCa0ydd5waiyygg",
"Zji8dxdy:81:ygayvCFFlg55r@5590,yii8wjjjxFxssq6w65payaw8gaywalCCx",
"888iixvj5108::aCSCkg4w42=0>-2505w8wswjiFFxBd66q:55ww48wwwgxjaagC",
"iwya8axjSg$$10aCx54w42,5*,-2y5,9wwi818jFxxjw<<664w0wawaagaaaaa05",
"w11widawaCay5yalp59a2>2>=&29r4>t1w1#8wFsdjwww6660wwaaaaaiiaay000",
"wiaiawiga:CSCgCCCw25*o-=-54te3y=<8:88nnwsjdwww66>ia98048iiaaw40a",
"wwwwwww8yy1iSZjir>>,20237uqu6<:;:6<8jziusii666q6w666666sawdwwwdj",
"yyiww888y0jwwZCi202>4a43e;q6$661:<iuwdxddww6666iw6;;69968wddwdww",
"aiww88888gwiiilar0to@X5a&3<<i$6$18w6sjxjhs666hw<666;:666wwww8wwd",
"iiw8888w08yyawwgrt3*-@-49=;6O6:1wijsxjxxNjwq6w666:;:666wawaw8www",
"ww8888ww88dd8ii14g5,39@o=92*<1:zxixxxznipds66s8666666:8wwww9wwww",
"w88888ww8dijawd8e5aeoX-*=D3>BiO68jZjw1sdj66dhw66:66wwwssw6668www",
"iww88wwwiidijx1dt,rc,2-*tk*>wF11wxj8ww8ihdhw6666q6;wzzjw9666998w",
"iw8888wwaiwiiww1eaa5Vc2eeca&<iz8jw8wwwww66wwiw6:6qwcz9ww9666686w"
};
