/* XPM */
static char *_2551_b3582470db899cc3a7ff0e9567b531f1fefa7c7b7558018f0a9169a3d8c3adaa[] = {
/* columns rows colors chars-per-pixel */
"64 64 58 1 ",
"  c #050004",
". c #080307",
"X c #090907",
"o c #070608",
"O c #0A060A",
"+ c #0E0C0D",
"@ c #100D0F",
"# c #11110E",
"$ c #0F0D10",
"% c #120E12",
"& c #180F14",
"* c #151314",
"= c #181517",
"- c #171813",
"; c #191916",
": c #171518",
"> c #1A1619",
", c #1B1A1B",
"< c #20171C",
"1 c #201C1F",
"2 c #21211F",
"3 c #1F1D20",
"4 c #221E21",
"5 c #232223",
"6 c #282427",
"7 c #272528",
"8 c #2A2629",
"9 c #2C2A2C",
"0 c #302C2E",
"q c #31312F",
"w c #2F2D30",
"e c #332E32",
"r c #343234",
"t c #393437",
"y c #373538",
"u c #3A363A",
"i c #3D3A3C",
"p c #403D3F",
"a c #3F3E41",
"s c #423E41",
"d c #444244",
"f c #494347",
"g c #474548",
"h c #4B474B",
"j c #4C4B4C",
"k c #514E51",
"l c #555456",
"z c #585357",
"x c #575558",
"c c #595458",
"v c #5C5B5B",
"b c #605E61",
"n c #656064",
"m c #696367",
"M c #68686A",
"N c #757074",
"B c #79777A",
"V c #847F83",
/* pixels */
">1$37,$:**;:;:#;1-,rt6>1<*=9w4379:&%%&&%&>47<:%:::%::::::%:::32:",
"*,>59ae:::;:,,#-,=,691><5,:*$3wsa43:&33&&>473:%::%%::::::$:::::#",
"-,,55dd,::,*-:*-,,<<;<,-*>>>344394&%:443>><3<::::$:%:3::3333,23:",
">>::*79i$$,*#-*:,<>-><--==**33&O08%&&44&>>>:::::%:::>:::::::,;;:",
"-;@#--2x2#-*$:--;>>--<<-&&:&%%&&88&>&88&:&::%:%::::::::$*:*-:;**",
"@,--<>#ka:**:,-+-&&-=-&-%%&&:&$$37&<:ew:&:&%:::$:$::::::-;,,2,*;",
"#-,-;1@rj3**;,:$-=-&=<<&4:O@%&&%373<%e3$&%:%$:%$:%::::<3***-,;#$",
"##,--1#rj2;;***;-<=-&<<-%>4>>>33&<>&$e4&:::%$:3%:::::333;:#$,*X*",
"------22g;-2:#3:>@<2=<2&:7:%<:$:3&&:>>e&<%&:$$3:***::3:::-****:*",
"##-22-22l5#:,;;#-&<;#=2<<4&%::&:$<4>4>7&$:<$:3$:$**::::::*#*#-**",
"2;;3;;;3g7-:::;:=&&=<<<<4<:&&&:&<7><847>w&$&$$3%:*$:::::*#*$*-:;",
"q2;;;:-322,::*-;-=-=<<-<:&&::&%Osa:38&<$aw$<Oo3$*:::$*:3#*#**:32",
"2--,32--,3-*;;*#=,,=&&<4:&&:&&&%0s<>8:%&$z3O::%O***$$$:$*#**#:;3",
"--#--2;-;:#$:,-$:==>48<$:&&:>:<7sN4Oa7$7Oaa&%:O3:*::**$:**-$#*-:",
"-:###23:-*-***:;*%&>4sa$:<::<:38nV6%0<O&4&w83::3::::33:*:-**$#$$",
"X#--323*:*::*--$%=,&&0sa&3<<3::8as&08&>3><4ea43%**::33,$;:-*#$##",
"$;:*;23**;*##::#o53$*$3ga8333$:%<46m<><::37>as%<*::::::;*:-$#-*$",
"#$#$#;;:::::::-#35*$:,:343a3$:33a86s&:>:3$&%<sa>$:::#:-*;;::,,-+",
"+##$#*;,:#*::::3:**:33:::$4b3$:ase67%&&::$&&$4s4*:::*#***:;:;,*+",
"*$#**$-3*##;-##,5553:*$*$:$4x3%<se>&%&%&$3&<4%84:::$#:-*#;,$$*;;",
"*++$$+##*#*2,+*,a93:$$:$$:$$$a%$ee$%&&&:$3%&0<%4::*$*::-:;:*-,23",
"*#X+#++$*#*,,;9g93*$$::::O3o<O3:aa$<>&::&:3:<43&::*#;::*:*##352:",
";#++##$$:+@=,1rj:::3:$$::$o7$3a$aa:<:>&&>373@&3&*;*******--*323#",
"**#++#**#+*1,-:,::*$*$:3%$:%$<<aw4&%&>%>33$<343::::;*;;**;3::;;;",
"-:;*#:32:,,*;;;:::::$%333%3$&%7873&%%$$>:&:33<>&:*#*::::322:-92-",
";,;**:3,--****::::$:::$$$:3$&$&$a4&$::&&&::&3&<>-***-::**yy-$,#*",
";3,::;;:*:;*;*;:95::%3:%$:$$<&7:7<$&:&$$%:%&&:&3:***:;:-#ja333:2",
"33;:*;**:**,::;,a9::::::::$:7<07873344<<%&>3&:&%:*-::-:*:aq-,,;3",
",;:-*******-:*:,:3<>3:%%$$$:8<<:sae44<<&&333>:**:#::*::-qg7:::2-",
";:*-***;:::,;::,::>::%%::3::4:$%&473%&:<>3%%&%%*#:**-:-*yj25;;2:",
":--:***,,::,,:;,33:%%%::37w$44&<40e4%$:&:::%**$:#***:-:-7j;:*-::",
":::;*$*,,-::;:*;$::3:::3:9a34w%&07&O<aaa::3333:#****--:-,b:;;;*-",
"33*::o$3,,,;255;,;:**-***X59:5::a8aaas764@&04<<$&%%:::::$g%$5$%3",
"*$3o:::3,3,,277,:-**-:**,+:#397y48aa><%asa4%3<$&3:$:%%::$aa$$$3:",
"53$*3*:$*:;:-,,>*****:*-+#;:ir:5>%&&%3&8ss4ae$3<3:::%:%::9ha<43%",
"$7:,:o::#**#*:*:***#:#:-*;:#rw$$>%%%%&$&O%&>%&8333:$%:%%$$aw44::",
"%aB3::****;**;;,:-******-;*#,73:$&<:&$$%334O&3.33%&:::%:::3<<:%:",
"rkM::*$**;::*;:;,--*#**#+#*,,75#$$%%<>>&&&%74$8a:%&>:::::77::%&<",
"ad$$:+*:;*;*;;>>;:**;***-*#*::3:&:<:&$&$34&4$&c8%::<>::3:373::::",
"kj3*5:*::;*:,,;>;:-:#****;*,7*$*$&&&:$<&&%4>8heO:&>3>&&:3o$3<33w",
"aw73:**:,:**:*:>:,:#:#$,-#:,,,:*$$:<<::&&&34a<o>$%%::::::::::4aa",
"33::**::,;;***:>-:*#;:##-:,,,,:*&&:<<:::%4$84>:$%%::::$::::::::3",
"$$*:$$**;:*****;**$$:::;:-:::::*&:::333:3O<aao4$:%::::%%:::::$$$",
"$:::::*:;:*****-#*#*#-37-:###*#::&&&:<<<<&as44O%:::::%:%:%%:::::",
"$*::::::::*:***:**$*--;2##++$$**%:%::::3<3k::3:%%:%::&:&:::$::$$",
"***:::$::**-:*-;:*#-*::*#+$+**::%::%%::3:a7:o7&:%%%::::<:::3:::%",
":::::$$:::#-::::-$-,*$*+###$**:*:::::::::33$7$4:$:%:&::>&:::3:::",
"$*$::::::#***:*:*-3,#+-:#X+$$$$$::::::%$:3$:$$33:%$:&:&:<:::::$$",
":$$,**,*:**$:,:7g2*,;$*#$;X$:+#***:*****-**,3:,5:33$$2,#,,*#:;**",
":$::*$*:**:::::2g5;2,*:#,3$-;#*#::********#:,,2q9:$:;$+,:,;:,;**",
"-::***:,:::*:;3yw:+##**$,,-,:#:*;-*$**-*$*++-,27aa5:;$*:#:::,*#:",
"*:#$*:*$:$:**;2i2:#-;,,;;#:3:-:-:***-:::#--+*:*:7hw:;3,+::#:;*#:",
"#33-:-$$*$;;;:#52,,,:;>--$32,:-:,;;::;;:*3,#*:*#$7;:,*-::;*,3;:;",
"-77,:$$***;*;:#3#****#***#32,,-:3,;;;;;:*::#*;*;#:**;X$;*;;,53::",
":w7,-*$:>::*;::5**#*;;:>*#,;,3#;5,*-:::#*-#$;;:;353*$:$##;,,3,;;",
";92#:,*,&%,;:*+,:*#*:*+-:-::27:23,**-:-**:*-,,*::$:*#,*#:53;:,,7",
"=*,@=>>%>:*=>>*#>*#=:;:*;--3,#;2-::*$33#;**,,;*****-****##::,;:*",
"*@,*>=%%.3ri01;<@@:=-#**239,,33;***-;795*******$*#$#**-:#:#::;**",
"*@,-<=&>&>4wtq1-****>>=*,3j73,,,;:::,792;:***;*##$*:;::-:#:#-:-*",
"=@1#==>4:&&:11<>,;=+=*;=*:dd7:*33;---,,-:,;**;,*#$-33;*-**#::,,,",
":=5@-<1>@&-<===<*=,*>+->-*,u7,*;,***-:,:-3*;:#;$+#*,;;::****;;,3",
"-,9;151%>--<21<#:*:=r1:*:>+,,2,3,::,::3;:3:53+*#$$$#-*::--#*:;:-",
";<91564&>&->-<-=2--1d9>-*1::,r275,;;-:;::,:rr#*$*###-:::***:-::-",
"=*2=44>=&&-<<===>=56i,=5,;,;ij332*$:*:-*#*:aa:**#$*;::--:*-::,,:"
};
