/* XPM */
static char *_3651_238cffd62fcbde776e1f0fb045ef4782bc616ac51bf721b6841786db485b74bc[] = {
/* columns rows colors chars-per-pixel */
"64 64 108 2 ",
"   c #0C2600",
".  c #0D2900",
"X  c #132D00",
"o  c #1B2D00",
"O  c #163300",
"+  c #1B3502",
"@  c #163A00",
"#  c #1D3B02",
"$  c #1B360A",
"%  c #1E390A",
"&  c #212F00",
"*  c #233503",
"=  c #283603",
"-  c #223D03",
";  c #293D05",
":  c #243508",
">  c #243D0B",
",  c #2A3D0B",
"<  c #313F0C",
"1  c #223E12",
"2  c #2A3E11",
"3  c #1D4101",
"4  c #1F4009",
"5  c #244304",
"6  c #2A4405",
"7  c #254904",
"8  c #2A4A06",
"9  c #25430A",
"0  c #2B440C",
"q  c #26490A",
"w  c #2C4B0C",
"e  c #324607",
"r  c #324B06",
"t  c #32460C",
"y  c #38470E",
"u  c #324C0D",
"i  c #394D0F",
"p  c #2D5107",
"a  c #2E520C",
"s  c #305007",
"d  c #33520E",
"f  c #3A540E",
"g  c #36580D",
"h  c #264212",
"j  c #2C4512",
"k  c #2E4B12",
"l  c #2B4619",
"z  c #2E4A19",
"x  c #324513",
"c  c #334C13",
"v  c #3A4E15",
"b  c #354518",
"n  c #344C1A",
"m  c #3C4D19",
"M  c #2E5112",
"N  c #2F5019",
"B  c #345213",
"V  c #3A5414",
"C  c #365914",
"Z  c #3B5A15",
"A  c #36541A",
"S  c #3B541A",
"D  c #36591A",
"F  c #3C5B1B",
"G  c #3B6015",
"H  c #3E621C",
"J  c #3D4E21",
"K  c #355120",
"L  c #3D5622",
"P  c #3D5B21",
"I  c #3F6123",
"U  c #414F1E",
"Y  c #415616",
"T  c #415D16",
"R  c #42551B",
"E  c #425C1C",
"W  c #485D1D",
"Q  c #426216",
"!  c #43621C",
"~  c #49641E",
"^  c #44691D",
"/  c #4B6A1E",
"(  c #425621",
")  c #485621",
"_  c #435C22",
"`  c #495D24",
"'  c #425D2A",
"]  c #4A5E29",
"[  c #446322",
"{  c #4A6423",
"}  c #466924",
"|  c #4B6A24",
" . c #456329",
".. c #4A6429",
"X. c #4C6A2A",
"o. c #516727",
"O. c #506A26",
"+. c #52662C",
"@. c #526C2B",
"#. c #58682A",
"$. c #4B7023",
"%. c #53742C",
"&. c #567B2E",
"*. c #597B2F",
"=. c #4F6C34",
"-. c #526D32",
";. c #557430",
":. c #5D7835",
/* pixels */
"@ 3 D 3 7 G w O 5 B # 5 F  .- 9 4 A C F n z 9 5 6 c j A T u > h $ h $ % z 5 C X.F , c S n c k D q H I # z $ D [ B N n 2 0 c + O ",
"B M I q d ^ H c #  .- q X.A X h 9 N C a + O ; S V t 9 x S T K + 1 $ n D > # F X.P 0 c q 9 A k q A E B O % 1 N B D # . + V A k A ",
"q q B k B Z B 4 @ =.D c A O . % $ @ w k % O 0 S S 0 : v i W _ X 9 c T [ [ w 5 C q w ! C B [ P B k k 4 @ X 1 # k 5 # # 9 Z S a 5 ",
"d a 4 3 3 a B 5 O N k ; - n L X 1 @ A P n % c c S 0 t ( R v m + ..| { g S w - _ w # u G ! X.C B - : w A % % + D A D 9 k B w a 7 ",
"C F q 5 - w D q # q u - ; o.-.- 1 % P  .A , S ..v c v ( R u c 9 S V X.E % % 9 D  .k Z G C Z d C # 0 { { c % $ K ..C # A  .A V Z ",
"B E N k 9 C D 5 B _ F 0 T ~ T D 5 $ k P K h c A 0 v x x e e c k o 6 E P k > % 9 q w ^ Z 7 a p S 5 E @.Q A j 9 9 P B h c A w u Z ",
"H H M q # B H D F B 9 0 +.W Z [ k h j L L j $ o 2 j < < * = L n + A 6 # z h 9 _ B 7 C d C X.F w c ..W T P n h j F P z O X > 0 S ",
"a p 3 q # w q a H a - k v 5 E Z 5 k q L A k 1 b b : b U & * _ ( 0 V A c # # F | } q 7 7 w [ w # 0 S 5 Z P k - k F k j 2 j c , c ",
"p a 7 M [ ^ a 8 H d # - j , - w O q X.{ _ + $ 2 , : = v m = 9 b j _ A V F A Z G g g ^ a d F u 5 , > 5 4 k # q O.{ T + : 0 , , > ",
"q 3 3 7 B a a G $.g w q O # 9 M Z [ [ | [ ; b j > 0 y R U m , o x _ u - B } %.^ p p a 7 g X.Z c > + 5 5 M S ! ! ~ [ 0 0 j ; 9 j ",
"3 3 @ 7 H d 8 } &.G H F # D P B ! ! Q T ! w k 9 A B Y Y W ) v , + , - 9 w a g G M G B p ^ &.H S D - C C M ! X.Q Q ! c c A u k 9 ",
"M N a Z @.H k ! | g [ [ 7 } F w S 8 | T F S 0 C 6 q V R R y = < * ; u E F a p g G } F a H ~ Z [ X.0 F F q B g ! T f d 0 V u B q ",
"I I D M C u 9 B M w I M 5 d 5 q u 9 [ T V c c E A u Z Y y < = < m R _ Q { | H B a D q 3 a a M [ B 7 M w q 0 5 W ! V Z c V f F E ",
"q M q 3 5 # 5 c B k q 4 d g 7 B A u V C d 5 F T O.W i e e U v U m i E T B B w a 3 q 4 5 C B k w 5 B C a B D 8 Z Z 5 q d Y E u 6 ",
"d w M C d u S { I k 5 3 ^ | ~ E F C V ! Z 8 ~ Q T f r i R W V u v = v R 0 @ # M a p 4 B [ A c 5 7 H ^ G T E u Z | w d E { o.f r ",
"%.D C I V u Z ! Z w w 4 H H } B q 5 F { Z u W T / f e Y ` V E E x , c 0 : q c H } G 3 q A u B 5 - Z Q / V r q Z [ d B E u f V o.",
"F B R V ) W ; V f Q [ Z q 7 H } [ B u c v ) i e W 6 e ) ..W A 9 , 0 R n h k B M B 7 # 9 u V ~ ^ Z 8 5 / .. .u u B u V 6 v V V E ",
"B d V R +...e V Z f ! ! 5 6 F [ V w u w R R R t V ; ; c S c 0 9 ; 0 x o , L A @ 3 a S w u Z / G Z q 6 Q D D k B c c W u S V v V ",
"T C u B ` _ c d f C ^ X.u F F d u c T S ` o.) R S u ; 6 y ; # ; k c j + b 0 N 7 7 H } A 0 F $.^ } M g E k k C Z V R ..A A S S F ",
"| ! u u F E S Z f C Z [ w  .P # 7 d @.Q Y +.v ) W E u 6 c 0 9 k A S c , S @ w I I G B q # M C Z [ a C B 9 5 F [ W E E ; * k c c ",
"8 d w B A A v c Z d r B # A c + 5 Z / Q f S 0 y V E S u n m c _ R R 0 + n % w H } q 7 # > k 5 5 d 7 g q 9 - F } W E v # X h 0 0 ",
"7 w A c k n x w ` T g T q k 9 9 d $./ ~ { i v 0 f C Z f c c A F S 0 + o b X # D G 7 w 4 h P A u V C Z f w 9 V T Z u v u 0 P F B ",
"F S  .n 0 n c S E | ~ ~ u c c k C F C f +.( v - i V T f u i A v A = = 2 j   X E d 5 w @ $ L U v E W ~ V Z d u d u 6 u A j ' _ A ",
"0 0 L 0 - u 0 u V o.~ 6 6 S n h j @ # # S =.o + u d T V w c F V u x < : 1 + # A B 5 A # + b , < t R T f E Z w a F w w k - A c w ",
"t ) 0 * u u w B 5 ! E u E R : # 9 q k 9 + S 0 + u W S T A i A A c 6 x J b z 9 c e u R c 0 , U , * o 6 ! F 7 d Z S S - 9 > $ h j ",
"] ( c F ~ Z T F # w V S ) v + + B q w B k q * c 6 6 8 V E _ w 9 u m J > + b c 0 e V ) A 0 - U t > 2 u S u d F B A _ C k + % l P ",
"m c S -.~ Z { ! d S S B m A c D F q a [ F 5 #  .9 5 V c D _ h % A 0 > X : L A 0 e m R V B 0 V A D n B Z d 8 Z G 8 ~ ~ u @ l K L ",
"% 9 F { ~ Q ~ Z E [ [ V t S A 7 N a M F H 5 #  . .S S + O @ 4 h k 5 9 O 9 A m c = t y v S d B D P w w H a 3 u ! f V i 6 0 =.L O ",
"5 9 5 w ~ | d 8 B d V w e S S w q 9 5 k D 3 @ k w - - c A # $   z D P + j F F c e 0 e V W ! B d 0 q w B 3 @ q c E v d u j ' m 0 ",
"D A 5 # ^ Z - c C 5 7 c m S S [ c 5 # w F 3 3 q c + + ` ..9 h h P P A > A ) v c ) A A W ~ X.B w 9 # 7 D a @ q V V 6 u S # @ 0 { ",
"[ [ B q S Z 5 C Z B Q | ) 0 * 0 L 9 5 d H 7 M D D u E :.{ B 9 + l A S c c u 6 W  .D F ! Q O.T u B # 9 H D 7 u F S 6 ; S 0 9 B D ",
"V S c # k P 9 - T ! ~ T c , ; S B j q w Z p I G q u E ! V { A > 5 I P 0 u ` c w _ w c V r Q T A 9 k w d a Z ! B 9 v D } k c _ F ",
"#.c + > k  .C C _ w V e y 0 0 A q 3 # w 7 C [ 7 - 0 A 0 S F k - 9 ..0 c ` P A t 0 R R E ; m w 0 k # q w s T D 0 , S k n _ k 0 X.",
"W i , O # q 0 c D - t R ( , 9 c 4 M I } d 8 ! B 9 ; n # 0 w # 5 X.=.F # # k 0 F c W ` R v V c 9 5 A | C 7 g B w + 9 9 9 k # # S ",
"6 ; w k D [ A 9 n + : U ) , c A # M C C 8 g $.G 6 # % + # M q ! ! ~ X.0 0 w c S ..R ` W o.V V u 3 d C 7 g %.! 8 0 5 # - 7 B c 9 ",
"v - 5 7 H X.F 0 b , * : ; + 0 5 3 q g 8 8 ^ &.G F B 5 N A F H %.Q T T w 9 w V A u V R e V Y A - 3 C Z 5 Z *.X.F _ 0 q D Z P F 0 ",
"S w S B E D c n 2 b 2 , e u ~ g 7 G } H a H } Z | [ 7 [ F a C B } ~ Z A 0 c N q A F f u Z W V w M $.X.d g H F [ -.w B } A q c S ",
"0 w X.%.;.W c t : : 2 y T Q O.Q a a D B w w k M H D 5 d 8 # k - T Z W S k [ w w F d 6 V W v 6 Z a D B 5 a B w D D q w d 7 6 B c ",
"r g Q ~ T Y u v U v ( m W T Z a C 3 3 # 5 B M w k k w d d u E c F g w 5 6 E T E r ! Z V S F A d 3 3 q ; k D w A 9 B g 6 w T F w ",
"Q / / T e r u R R x S , u V d 5 M M N 3 M X.H a # 5 [ ^ Q Q S u Z ! u V @.| @.d - E R w w S k 7 C a q w P ..B 9 - B ! ~ ! Z c F ",
"Q Y / W r e ` W Y W m , 0 c * 0 H } D 9 j A a 7 7 5 C O.Q g c 9 T | V V Y T O.f 6 E E S c 9 q H H H 5 - A A 9 c 5 V Z ~ ! Z 6 6 ",
"s r Y Y < Y o.W T i ; 6 v m , A C g q 3 % k Z [ H C 7 8 ! | F c B S i V Y y W r 6 ) S 0 0 9 5 [ G 7 5 3 6 D {  .B S 5 Z ! F T c ",
"i v v v * v R v i f V R A 0 + c 3 3 7 a 7 w F @.~ } 7 # [ X.A u 0 w c R U 6 v - = S n - S D q C a 7 A c 5 k } D _ C # Z ^ Z _ u ",
"E Y v v , x v e u W O.[ n ; : w 3 7 H } Z w C ^ F [ C d F B 6 B S E ) +.W V W c ; t 0 ;  .} N 4 7 D  .c w q q w D c 0 D V w V B ",
"Y r r v v y m x t V F c j 9 c D H G ^ D 9 - M B T C Q / D 9 j ( { o.R ` i W ` W 0 0 c u c S P q a Z M 5 w D S a B 5 S Z d 8 u Z ",
"V 6 i R ` Y S m 0 t u 0 9 @ 0 c H Z B 9 + # B Z g 5 8 X.T q n n v E V V e V f V V 6 g S w w P 5 G M M j 5 A [ d 9 # F H G Z s f ",
"C u f T { R n 0 ; c c k 9 + 9 5 g d c , 6 w C | d 5 a P A B A c i W E V S k 0 B ! u g ~ S u k # ^ G D k , k S w k q B V | / f d ",
"d g u Z S V 0 : n c k > n L | 8 w k 9 : 0 u f | H [ _ c 9 k F ! | { ..y S ; q F T F F @.S q # c H } 0 @ q c q S =.S 6 5 ! Q Z C ",
"T ~ u q 0 , h % 0 A + % h K A q + . j S m 9 v ( k k D - + w ..W { T r { R v S E Q Z B k z L D k q 3 q H A w x 0 R ` V - u F | Z ",
"f Q c 9 9 9 h l 0 0 + % % % q c + % _ _ V ; - - 0 0 c 9 , m R d ~ T Y W E E u V V Z X ; O O k k 3 k C C Z _ S + - e f V T d C G ",
"w 9 - + k A h h h K z $ $ 9 P P z % n _ V ; 0 S c P _ F m U < ; c V S E ] +.u u Z 8 F A + 1 X L  .A 7 9 B c t 0 R u Y ~ ~ 6 u 6 ",
"0 5 0 9 c 0 X $ % j A % % j  . .j z _ c c S V # 9 c V A v v 0 m Z S A c ..+.c v d T [ X.D # + z  .B 9 A ..A j ( R x i Y W m R t ",
"5 j k 5 B A % $ % + z z j $ k  .j h A 6 u S n + A P B 0 ; , + 0 } [ k c ` F S Z V f ! Q _ 9 1 l A P n h n n j x < < m ) R b S 2 ",
"# q 5 + N =.P h 5 9  .P h 5 k P _ + * , x 0 x k + # - 0 A S m S B Z 7 k _ c V u T 8 Q 8 E D % j L ' j X + , , < < : , 2 x - : : ",
"a D a q d c k j % w  .k # A F F x : n b x , > o O O 9 k A S v w 6 7 A u S c V 8 r ~ r Z [ # k 0 S c h 2 m b j x U 2 o & b , c B ",
"} C 7 C } 0 # j 9 # 0 5 + F [ { 0 + , 0 , * j c , @ j , 0 c E S E S  .0 0 c S B W | | W f - q X.-.S % + 1 , = = U U x : n k D ..",
"a 8 d Q ^ B k % 5 # 0 d T } Q W E u w ; c 0 x n , : j , + o c 0 c 0 _ n - c n B E { T u u u E ! T T V 0 j , t c ) U m x * 0 w V ",
"^ 8 V %./ !  .k q [ F Z F X.Q W u - 0 R A c v c - j L n : O j j 9 j 0 - q c 5 c 6 E [ v v { { T O.Z A w ' n m u Y m ` m 2 * 5 T ",
"{ 7 g [ g D X.D w } 8 u u T Z ~  .u 6 A ; u E V # , c y u 0 C A L L c u E E k F 5 8 A V E R y W ! V B 6 A 6 i c W v v , x , w { ",
"F - 6 w q F F 4 8 B # 8 7 d V Z 0 w B Z u V S u u c u 0 S B  . .' n _ o.W T [ F B u V V A V ; E T C C c V w V _ Y c < & n S c B ",
"# 7 B B N w 3 q Z B d H B u E B # c ! W | V i w V _ S 0 0 # 9 n j > B X.[ T ! Z E E { w u _ u S B w 5 d [ { V r e S m x m R ; 9 ",
"7 c P P D w 4 I H ! [ D w B { C C F ! Z W 5 ; ) B V c 6 k + $ % 1 l 9 L @.T f ! Z d E c u S V B ^ D 8 d F { V 8 i V V R S S - w ",
"P k w 7 C [ N q a D w 0 q S A D 5 B Z T E e 0 _ c c c c _ n z % > l % k F u g T V ; 0 S c 0 k B Z F D 9 9 5 u B E w 0 u c v 0 t ",
"X 5 G q 3 H N O 5 w # q F } 3 q # A T f 6 x 0 , 0 0 A A D j j % h % % k - 5 ~ | E u c S c c D a 8 f  .- 0 # D ! d w A ; 0 c 0 : "
};
