/* XPM */
static char *_5499_1e854643455b4c2cad8ff3523883bcbba6f4e4064fd65c9bbbc31217db8d1e58[] = {
/* columns rows colors chars-per-pixel */
"64 64 50 1 ",
"  c #5D5E59",
". c #60615C",
"X c #666762",
"o c #696A65",
"O c #6B6B69",
"+ c #72726E",
"@ c #757573",
"# c #777873",
"$ c #7C7C7A",
"% c #82837F",
"& c #848482",
"* c #878883",
"= c #898986",
"- c #8B8B89",
"; c #8F908B",
": c #91918E",
"> c #949492",
", c #979893",
"< c #989994",
"1 c #9D9C99",
"2 c #A2A39E",
"3 c #A4A4A2",
"4 c #A7A8A3",
"5 c #ACACA9",
"6 c #B0AFAD",
"7 c #B1B1AF",
"8 c #B5B4B2",
"9 c #B9B9B6",
"0 c #BDBDBB",
"q c #C0BFBD",
"w c #C2C1BE",
"e c #C5C4C2",
"r c #C8C7C5",
"t c #CAC9C6",
"y c #CDCDCA",
"u c #D0CFCD",
"i c #D1D1CE",
"p c #D5D5D2",
"a c #D8D7D5",
"s c #D7D9D6",
"d c #DAD9D6",
"f c #DDDDDA",
"g c #E0DFDD",
"h c #DFE0DC",
"j c #E1E1DE",
"k c #E1DFE0",
"l c #E4E3E1",
"z c #E8E7E5",
"x c #E8E8E6",
"c c #ECECE9",
/* pixels */
"jffglgdiffiupkkkllhllhhkhlklhhffkhlflgggllkzkffygggggfkpidfadfkg",
"jffglgdippuypggglklllkkkhhkhkkffkhhhhklgggglggfrgglkppgipdddgggk",
"lgfgkgdppiyudddflklklkhhhhhhkfffkkkllgggffgklgfrgllgpdddgppgggfg",
"fggfggfpdpupgfpfklkkhllhhhhhkkfskkkhllllggfgglfegggdggdkduidgfag",
"fggfklgfdpppggddhkkhhkkhhhhhhfspgjklgkljggffglgtdgkpddukauypffdg",
"fggfglgdddpdkgddhkhhhkkfkhhkhfsijglglllllkgfglktyfzppu9gduuidkgk",
"fkgfflgfddpdgkfdfkhhhkkhhhkhksspgkglljjlglggglgrrdzdgi8igdppflkk",
"lllfflkfpdddgzkfshhffhkshhkkhfssggglgljlgkggglgrtdkdxg8tkgpidkkg",
"glgljkgjddgggklgfkkhfkhsfhkhkkisfgllgzlgllgfgkgdiggaggurggipgkgl",
"ggljggljddgkgggfpffffkkhfhkfhkisfglkkljlgggggggdwpkkgdrqkgpdklgl",
"gggkggggfdkkgggdpssfhkhhfshshkiiddzlgkglggllkgddyakdpdu8gkgggggg",
"gkllgggkfagkkggdpffhfhfsssksssyupdllkgfglkllgffgddgdpgp8dgggggdg",
"gllggjglgdglkggfsfhhkkkssskssprupdkggkffdfglgggfdpggdgi8udgggddg",
"ljgljklggdglkgggshhkkkkkssspsirsdfgddlffquglllgddgkddgdutfkggggk",
"lgggllkggdfllgglhkkhhkkssssppiysfgfuyffd6ullglkddkkdpdgkiggdgjkl",
"lgggkkgfgdgllgllklkkhhkssipussufdffreudd6pxlggkfpggdggpfdgdpglkl",
"gzgjjggapggkkkkkzkklkkfdysttyfishdddwwzd%zhdjjhjapdgggddfggfffff",
"dgaagppupgkkkzkkzkkfdspitp008pyphpzj94i4%hjjzgagdddgggdpdggffgff",
"dgpagpaiagkkzkzkkkffhdddsf081eupjdhdw+%%%zgghzdjffggggdpdfggggfd",
"dgdgjggdggkkkzkklgffhkllhkpt50tyhhdfzo%iwzhdhzjgfdfgggfddffkkkfa",
"pdpgjggggggfkkkklkhfdffhffllittedpjfc%%zidhahjjhdfggggggfdfgkgdf",
"ugpdggggggfdggkkkhfhhffflsfkldspdafwc%%fiahittjjdfggggkkgddgkgfg",
"pgadgdgggggfdggghhhkkkhhxkssllllddiwc9%xddhd9wijkggkggkkgddgkkgg",
"uappaidgdgkgddgghhhhkhfsplkfkldgjajwwwwwddjx8wwtkkggggggkfdgkggk",
"gugagupggggklgadhkkkkgfpddfffglghsai4wpwwjdjiidwtgjgdgggggadgjjj",
"jgwglggaddgklgggkkkfkgfddfggkllkhjah<wzw9zhjiigttddddgggjgggjjjj",
"jjqpgglggdgglljllfhhkffddfffgggghhhh%%9%%zjjggjgadddggggjjgglljl",
"jjiwdgzggppgjllzglffffdfdffffggfsswd2 Xo#iddjjjjjjggggdgzjggglll",
"jjgwgzzggppgggkllffgffffgkkggkkghxd% %y%#iddggdgjhdhgddzjgjgjjjj",
"jzguqggkkdpdggklfffgfddgfgfffggghhi% 2xd%djjgggjdgdddddjgjjjggjj",
"jgggqrgckgagkkglfffkkddgdfffdggghah4%%cd9idjddddhjjhggdjjjgjgjjj",
"zggcgqgglgagggglffflgddfffgfgkkghdhhh4isiddjdgjgdhhhgggjjjjjjjjj",
"lgllffgklpdlgfklffffgffdsfkspsffhhhaj0wxuaagggzggggggdgggggggggg",
"kgglkfggfgggglzfkffflkfdsfffsssfdddhjwwhpppgggggggagdddggjzjgdjj",
"zggllgfgkdudllfgfffffgffsfffffffdhdzddwagpiggggggggagdddgjjjgddd",
"zlgkgdpffpeykgdgfffffffdsffffkffzhdddzwigppagkgkggdggddggggjjgai",
"klgggpufpgu0tklffffffhffkffsffkfzggagzwwgaaagjjjgfgggdggjgjjjjdy",
"glggkpplufdeepflfffgkkllkfffdddkggjajjdwgaguajgjffdggggjgggddddd",
"flllxdplfiupiyplffgklklkkfskfaagdggdgfdwgaguugggjffffffgggddiidg",
"dfflzdygkpiddlldffggkkkksssffffkgjgdfggdgggtujgjjgfgfffgjgddaaad",
"fflhll8hkhaipalkfgggggggkdipdddkdjjgfgfdagjgyugjgdgddddgjgdddddd",
"kflsll0tkfhkfplfffgllglggapdgfdkgjgggggdwdddyyagggggggggjddddddd",
"hklphzt9lhflfpkfkkgjgffddadgfgdgfggggggdwiaayypgddgggdddgdddgdgg",
"fhkphhs9fxfdsdkklllkgfddffdpafgdfggggggfdipiyuaadddgddddddidggdg",
"hhhsfshe9kxpggdgggkkgffdggduuagfffdgggggfapiiidgdddddddddddddggg",
"hfhhsshs=9xalkpggggffdpipgfuypgffdgggggggdppiadgddddddddddidgggg",
"sssssfsk<-ffkgfgkkgfaputqpkpypdggffggdggfdapiaggdggddddddiiigggg",
"ssissksky=dlgfgffggkgfdp6ikfypgdgfggjgdgfadaadgjgjggddiiaiiddgdd",
"khpphhssp=7skkkhdfggdgfg7uggpigkdgggggdggdaiadgdjjggdiiadttaddjj",
"hhsphkssy&:ksxlsdfggfffgtyfggidgggggjggdgdaiaddgjjggdiiidiidddgh",
"ssspsksksu3eksscdgfgggfgyqdfgdgddgggjggggdaadggdjjggddiadiiidddd",
"hhspsskhee57ksxhfffgdgffe8ggggkddddggggggdaagjggjjgdgiiagddiiaai",
"sssssskhs7>-kkkfffffjdhju8ggkddpdddggggggdddgggggggdgdiaddjdiiai",
"sssisshxck8%rxhxggffdjddg8rdzddfdddgdgggggdddggddjggdddiddgdiiii",
"upiisskkskcr0fcsjggdjdhhgwwpkdfgdddggggggggdddfggjjdgdddddddiiii",
"isiiissklhlkkyskjjddjjdhggddggkpgdgggggggggdaddgdjjgggddgddgdiii",
"apdpdfifhfflxdpfhhdhhfhdhdddhhhdggjjjjjjgjdgfagdgggggggggddddddd",
"aaffaddgfsklkkfkhhjdjfpsddgddhddggjjjjggggagfigddgggdddggddddddd",
"fafkpiggssklfhllhjxajjsdddhhgdhhggjjgjggjgdgduaggggggdddddgdggdd",
"aafliykffpflfkxkzjcawcjjdhgghhghggjjjjjgjggjguaggggggggddddgdgdg",
"saflitkglypllglljhxp4hjdhggggjgdjgjjjgjgjjjjgiijggggggddgdgdgdgg",
"kpfldifglyylllllzhxw4dxdhhgggggggggghgjjjjjgjaudgggdggdagddddggd",
"fakkfddglpydlkglzzxdwajjgggghgggjggggjgjjjjdjjtagggggddaddddddgg",
"kpffgfiggfipgllljzzwjihjgjjhggghjhgggggjzjzdzzuiggdgggddiaddgggg"
};
