/* XPM */
static char *_647_0b77f0df6c44aea919fcc58dceaf3ee18392956a91abbdb0615cbe367b100a8d[] = {
/* columns rows colors chars-per-pixel */
"64 64 172 2 ",
"   c #010101",
".  c #080406",
"X  c #05060B",
"o  c #07080B",
"O  c #0A0C0C",
"+  c #070911",
"@  c #0A0C15",
"#  c #0B0E18",
"$  c #0E1216",
"%  c #0E111B",
"&  c #121315",
"*  c #12151D",
"=  c #16191A",
"-  c #1A1C1C",
";  c #200F16",
":  c #0F1920",
">  c #0E1C2A",
",  c #151A23",
"<  c #1B1E24",
"1  c #171F29",
"2  c #1F2222",
"3  c #17222C",
"4  c #1C222A",
"5  c #1C2631",
"6  c #1D2A35",
"7  c #212324",
"8  c #21252D",
"9  c #25292B",
"0  c #292B2C",
"q  c #232730",
"w  c #242A32",
"e  c #2B2E35",
"r  c #2D3335",
"t  c #25333D",
"y  c #2B313A",
"u  c #313436",
"i  c #31373E",
"p  c #3F343D",
"a  c #353A3C",
"s  c #383D3E",
"d  c #6E1F1F",
"f  c #722E32",
"g  c #263541",
"h  c #2C3441",
"j  c #2C3A44",
"k  c #2E3F4B",
"l  c #383645",
"z  c #343C44",
"x  c #3A3E42",
"c  c #333F4A",
"v  c #413747",
"b  c #4A3D47",
"n  c #413D4B",
"m  c #4C3D49",
"M  c #5A394A",
"N  c #5E3D51",
"B  c #6D3654",
"V  c #623E50",
"C  c #79395B",
"Z  c #2F414E",
"A  c #3B4146",
"S  c #32424D",
"D  c #3B434B",
"F  c #3C484E",
"G  c #2F4250",
"H  c #304351",
"J  c #3A4751",
"K  c #364853",
"L  c #3B4A54",
"P  c #3E4F59",
"I  c #46444A",
"U  c #42454C",
"Y  c #444A4D",
"T  c #4A4C4E",
"R  c #59414D",
"E  c #414551",
"W  c #454C51",
"Q  c #4A4D52",
"!  c #544351",
"~  c #5D4553",
"^  c #544A53",
"/  c #5B4C56",
"(  c #5D4E59",
")  c #475154",
"_  c #4C5256",
"`  c #44535B",
"'  c #4D5459",
"]  c #4D595F",
"[  c #51565A",
"{  c #5A545B",
"}  c #545B5D",
"|  c #595A5E",
" . c #78464D",
".. c #634557",
"X. c #6E455B",
"o. c #624C5A",
"O. c #6A4A5A",
"+. c #74455B",
"@. c #77485E",
"#. c #6F5455",
"$. c #765358",
"%. c #4B5C64",
"&. c #4E5F68",
"*. c #535764",
"=. c #575F61",
"-. c #585E61",
";. c #7E4961",
":. c #4F6068",
">. c #576063",
",. c #596163",
"<. c #56666D",
"1. c #5C6669",
"2. c #5E6A6D",
"3. c #5E6C72",
"4. c #616B6D",
"5. c #7E666C",
"6. c #626D71",
"7. c #647175",
"8. c #687375",
"9. c #67757A",
"0. c #6B7679",
"q. c #6D7A7C",
"w. c #707379",
"e. c #707C7E",
"r. c #7D7A7B",
"t. c #83345C",
"y. c #853D5D",
"u. c #A13458",
"i. c #AC315F",
"p. c #853961",
"a. c #973769",
"s. c #983668",
"d. c #9C396C",
"f. c #AE3563",
"g. c #B23768",
"h. c #834562",
"j. c #8A4463",
"k. c #844A65",
"l. c #8E4867",
"z. c #954669",
"x. c #93496A",
"c. c #9C496E",
"v. c #A54268",
"b. c #A34C72",
"n. c #A84E76",
"m. c #AA4F78",
"M. c #AE527B",
"N. c #86676F",
"B. c #6E7D82",
"V. c #717F81",
"C. c #847E85",
"Z. c #B2618B",
"A. c #B66790",
"S. c #C25C91",
"D. c #748184",
"F. c #7A8485",
"G. c #77868B",
"H. c #798789",
"J. c #7C8B8D",
"K. c #7E8E91",
"L. c #7F9092",
"P. c #838587",
"I. c #808F92",
"U. c #918190",
"Y. c #829294",
"T. c #869699",
"R. c #87989B",
"E. c #8B9B9E",
"W. c #8C9DA0",
"Q. c #8EA0A3",
"!. c #94A4A6",
"~. c #95A6A8",
/* pixels */
"H H H H H H H H H H H H H H H H H H H H H H H H H H H H H H H H H H H H H H H G H H H H H H H H H H H H H H H H H H H G H H H H ",
"H H H H H H H H H H H H H H H H H G H H H H H H H H H H H H H H H H H H H H H H H H H H H H H H H H H H H H H H H H H H H H H H ",
"H H H H H H H G H H H H H H H H H H H H H H H H H H H H H H H H H H H H H H H H H H H H H H H H H H H H H H H H H H H H H H H H ",
"H H H H H H H H H H H H H H H H H H H H H H H H H H H H H H H H H H H H H H H H H H G H H H H H H H H H H H H H H H H H H H H H ",
"H H H H H H H H H H H H H H H H H H H H H H H H H H H G H H H H H H H H H H H H H H H H H H H H H H H H H H H H H H H H H H H H ",
"H H H H H H H H H H H H H H G H H H H H H H H H H H H H H H H H H H H H H H H H H H H H H H H H H H H H H H H H H H H H H H H H ",
"H H H H H H H H H H H H H H H H H H H H H H H H H H H H H H H H H H H H H H H H H H H H H H H H H H H H H H H H H H H H H H H H ",
"H H H H H H H H H H H H H H H H H H H H H H H H H H H H H H H H H H H H H H H H H H H H H H H H H H G H H H H H H H H H H H H H ",
"H H H H H H H H H H H H H H H H H H H G H H H H H H G G G K G G H G H H G G G G H H H H H H H H H H H H H H G H H H H H H H H H ",
"H H H H H H H H H H H H H H H H H H H H H k k k Z G G Z G G G S G G k G k k G G H H H H H H H H H H H H H H H H H H H H H H H H ",
"H H H H H H H G H H H H H G H H H H H H c W ' W D Z Z Z G G S S L &.&.&.%.%.L K H k G H H H H H H H H H H H H H H H H H H H H H ",
"H H H H H H H H H H H H H H H H H H H G D } } =.} _ A Z S F ) [ ,.D.E.W.E.T.Y.J.B.<.P k Z H H G H G G G H H H H H G H H H H H H ",
"H H H H H H H H H H H H H H H H H H H Z U / B ^ =.=.} Y _ =.=.=.=.,.J.E.W.E.E.W.W.W.K.7.K k Z Z D H L F c G G H H H H H H H H H ",
"H H H H H H H H H H H H H H H H H H H k U ..d.t.R =.=.=.=.=.=.=.=.=.4.T.E.W.E.W.W.W.W.I.-.F W =.=.=.=.=.F G G H H H H H H H H H ",
"H H H H H H H H H H H H H H H H H H H k W ..a.d.t.^ =.=.=.=.=.=.=.=.=.D.W.W.E.E.W.W.W.B.-.=.[ ^ ....! } D G H H G H H H H H H H ",
"H H H H H H H H H H H H H H H H H H H k W ~ a.y.o.} =.=.=.=.=.=.>.,.=.6.T.W.E.W.W.W.L.<.=.-.-./ t.s...W k H H H H H H H H H H H ",
"H H H H H H H H H H H H H H H H H H H k W ( C { =.=.=.=.=.=.} s 9 U =.,.Y.W.W.E.E.W.J.-.} s s } +.p.Q c G H H H H H H H H H H H ",
"H H H H H H H H H H H H H H H H H H H G c { { =.=.=.=.=.=.,.a = 0 A } -.V.W.E.E.W.W.D.=.T 7 O Y | ! x c H H H H H H H H H H H H ",
"H H H H H H H H H H H H H H H H H H H G j U } =.,.=.=.=.=.=.Y [ -.-.>.=.8.E.E.W.E.E.q.=.>.=.e x ,.U j H H H H H H H H H H H H H ",
"H H G H H H H H H H H H H H H H G H H G z U ' =.=.=.=.=.=.=.,.,.=.} } } 4.T.W.E.E.E.6.} U Y ' } >._ H H H H H H H H H G H H H H ",
"H H H H H H H H H H H H H H H H H H H c x Q } =.=.=.=.=.-.-.} U 9 < 4 A ,.T.E.E.E.T.4.a # # 7 Q -.} S G G H H H H H H H H H H H ",
"H H H H H H H H H H H H H H H H H H H c E ^ =.=.=.=.=.-.>._ w # @ o @ $ D Y.E.E.W.T.} = X @ @ , W -.L G H H H H H H H H H H H H ",
"H H H H H H H H H H H H H H H H H H H c I [ =.=.-.-.>.| Y , @ + X & @ o 7 J.E.E.E.T._ o & & + @ 4 } W S H H H H H H H H H H H H ",
"H H H H H H H H H H H H G H H H H H k x W =.=.=.-.-.>.U * @ + * v [ *.Q 4 D.W.E.E.T.Y e -.*.< @ @ i ) Z H H H H H H H H H H H H ",
"G H H H H H H H H H H H H H H H H H c U Q | >.=.=.>.Y * @ * x U 7 o + *.x B.W.W.E.R.' E o # z e @ , ) S H H H H H G H H H H H H ",
"H H H H H H G H H H H H H H H H H H c E [ -.>.=.>._ , @ @ Q [ &     o 2 z D.W.E.E.E.,.h   O r D < # z W Z H H H H H H H H H H H ",
"H H H H H H H H H H H H H H H H H k x Q } >.=.>.} 9 @ @ = ` u T   o 2 3 z J.W.E.E.E.,.W 0 . = * q @ < ) S H H H H H H H H H H H ",
"H H H H H H H H H H H H H H H H H c n ' =.=.=.>.i # @ @ 4 t . $       : J Y.E.E.E.W.9.t -       1 # $ F ) Z H H H H H H H H H H ",
"H H H H H H H H H H H H H H G G k U T { =.>.>.Y * # @ @ 4 6   .       * ` W.W.W.W.W.G.t .       > # # y [ J Z G H H H H H H H H ",
"H H H H H H H H H H H H H H G G c E Q -.=.=.} 8 @ @ @ @ 1 6           3 1.Y.I.K.L.T.T.P         > # @ , [ _ Z G H H G H H H H H ",
"H H H H H H H H H H H H H H H c n I [ ,.,.2.7.1.1.>.%.W c t O       $ ` D.L.K.J.H.J.J.%.@   . = z c c x >.>.F G H H H H H H H H ",
"H H H H G G H H H H H H H H H D [ 7.J.T.E.W.W.Q.W.W.W.Q.E.Y.q.) - a q.E.E.6.u - - a 1.L.Y a 6.J.T.E.W.W.R.9.L G H H H H H H H H ",
"H k g 3 1 3 q c k c G k H H G L 6.J.R.E.W.W.E.Q.Q.E.W.W.E.Q.Q.W.Y.L.L.W.T.2       O O q.E.E.Q.W.W.W.W.T.<.H H H H H H H H H H H ",
"H k 1 + @ @ # 1 y c ` J k G H G K ` 7.L.R.W.W.E.E.E.W.W.W.W.E.W.W.E.J.T.E.7.-     O 2 D.K.E.W.W.Q.Q.L.%.Z Z H H H H H H H H H H ",
"H H 1 + # @ @ @ @ # , z &.%.k H Z Z H ` 9.Y.R.E.W.W.W.W.W.E.W.W.E.W.E.F.r.R.K.7.2.8.D.F.T.W.W.L.2.7.F t Z Z G S H H H H H H H H ",
"H H 3 + @ # @ @ @ , l 3.T.W.9.H G G H Z S ] q.Y.T.E.E.W.W.W.E.W.Q.E.Q.P.d f $.5.N. .#.E.W.W.W.}       O O $ , 5 j H H H H H H H ",
"H K 6 + @ @ @ # l B.T.W.W.W.!.V.L G G G H G H %.6.B.H.L.Y.Y.T.T.T.T.T.E.N.u.i.f.g.v.C.F.B.3.:.3             . & t H H H H H H H ",
"H H g + @ @ q 3.T.W.W.W.W.W.W.~.L.L G G H H H S K J L _ ,.,.,.1.,.1.2.8.L.U.Z.S.A.P.4.=.} K j O               . j H H H H H H H ",
"H H k % + D K.W.W.W.W.W.W.W.T.9.] ` G H H H H H G G A W -.=.=.} =.=.=.} =.8.q.w.8.q.,.} } ` i - 9 - O         $ Z G H H H H H H ",
"H H k 6 W Y.W.W.W.W.W.W.W.7.y # @ e L G H H H G G Z A _ -.-.>.=.=.=.=.=.=.[ [ [ } =.=.' [ [ _ } =.=.Y O   < Y s j Z H H H H H H ",
"H H k K B.L.W.W.W.W.W.B.l # @ @ @ # ` ` k H H H H H c Q =.=.>.>.=.=.=.=.-.=.=.>.-.=.=.=.=.=.>.-.=.[ T - . A ' } F Z H H H H H H ",
"H H K H 3.G.I.W.W.K.` , @ @ @ @ 4 =.Y.K.K G H H H H c W } =.| >.=.=.=.=.>.=.=.=.=.=.-.=.=.=.-.=.=.=.} & O Y } [ ) j H H H H H H ",
"H H H k ` V.J.T.9.w @ @ @ @ < ` K.W.W.~.9.H H H G G c T =.} [ >.=.=.=.=.=.=.>.>.=.=.=.=.=.-.=.-.} ) Y & - } } =._ i Z H H H H H ",
"H H H H k 1.V.c # @ @ @ * z V.W.W.W.W.W.!.&.G H S Z D [ =.=.[ _ } } =.=.-.>.| | =.-.=.=.=.=.=.-.=._ 0 . - _ [ ' ) S Z Z H H H H ",
"H H H H H K w X X @ @ q 3.R.W.W.W.W.W.Q.K.6.j H Z c Q =.=.-.>.,.e.4.} [ _ [ [ [ [ _ _ { } >.>.>.=._ O   s ,.=.} F Z H H H H H H ",
"H H H H H H 5 X . @ F K.W.W.W.W.W.Q.T.&.< 8 c j S Y } | =.-.-.8.E.E.T.J.e.4.,.4.1.8.H.Y.4.Y u x T 0     r =.} Y Z H H H H H H H ",
"H H H H G G k , $ ' J.W.W.W.W.W.W.V.h @ @ @ * , a W =.-.=.=.-.V.W.W.E.Q.W.Q.E.W.E.E.!.Q.L.=     .       . 2 S Z Z Z H H H H H H ",
"H H H G G G G j Q J.H.J.W.R.E.Y.*.< # @ # < i U ' } [ ' =.=.>.J.W.W.W.W.E.W.W.W.E.Q.E.W.q..               O Z H H Z H H H H H H ",
"H H H H H H H H P 6.4.>.4.1.1._ * @ @ , x =.,.,.-.>.,.} } =.>.J.W.E.W.W.W.W.W.W.W.W.W.Q.}                 = S G H H H H H H H H ",
"H H H H H H H H G W >.) Q { =.-.Y $ < ) ,.=.=.=.=.-.-.>.-.-.,.J.W.W.W.W.E.W.W.E.W.W.W.E.s                 7 j G G H H H H H H H ",
"H H H H H H G G k T { T o.l.o.-.,.Q ' -.=.=.=.=.=.=.-.=.-.-.>.J.W.W.E.W.W.W.W.W.E.W.W.T.2               . M b a F c H H H H H H ",
"H H H H H H G G F X.z.~ ^ x.h.| =.-.=.=.=.=.=.=.=.-.=.>.>.>.} D.W.W.W.W.W.W.W.W.W.W.W.E.} 2 = & O .     ; z...U [ U k H H H H H ",
"H H H H H H G c [ { k.@.{ | o.=.=.=.=.=.=.=.-.=.>.} -.-.=.=.=.8.W.W.W.W.W.W.W.W.W.E.W.E.8.| } [ _ Y s u p V I M j.R F S S G H H ",
"H H H H H H G G N ;./ | =.{ o.{ =.=.=.=.=.=.=.-.>.>.} -.=.=.| 1.I.W.W.W.W.W.E.W.W.W.W.V.>.>.>.>.>.} _ -.=.[ [ I N b / U G G H H ",
"H H H H H H H G n p.+.{ -.$.b.c.+.{ -.=.=.=.-.=.} W Q } =.=.=.=.0.W.W.W.W.W.W.W.W.W.H.,.-.} =.=.>.Q [ >.{ / [ } T m p.v G H H H ",
"H H H H H H H H G c l D [ ;.M.M.n.@.=.=.[ _ Q W x z U Q } -.=.>.,.V.W.W.W.W.W.W.E.D.,.>.=.>.=.=.} T | O.z.c.C } [ I l S G H H H ",
"H H H H H H H H H H G G F ( l.m.M.x.{ } x H c k H H c U Q ' =.=.=.,.0.I.E.E.T.J.8.-.-.-.>.>.>.>._ _ { x.M.M.z.{ ) S G H H H H H ",
"H H H H H H H H H H H H c F ^ +.k.+.[ W c H H H H H H c c n Q [ } =.-.,.4.6.4.-.>.-.>.} [ _ _ _ T [ o.b.M.M.h.[ D Z H H H H H H ",
"H H H H H H H H H H H H H G S D U E D c H H H H H H H H c H c U E Q Q ' [ { [ [ [ Q W D S H Z S U } { h.b.j.{ W Z G G H H H H H ",
"H H H H H H H H H H H H H G G G G c H H H H H H H H H H H H H H c c D D D D D c H c k G H H H G A Q =.{ { { ' S G G H H H H H H ",
"H H H H H G H H H H H H H H H H H H H H H H H H H H H H H H H H H H G H G G G G G H H H H H H H G c W [ ] W S H H H H H H H H H ",
"H H H H H H H H H H H H H H H H H H H H H H H H H H H H H H H H H H H H H H H H H H H H H H H H G Z c c S G Z H H H H H H H H H ",
"H H H H H H H H H H H H H H H H H H H H H H H H H H H H H H H H H H H H H H H H H H H H H H H H H H G G H H H H H H H G H H H H ",
"H H H H H H H H H H H H H H H H H H H H H H H H H H H H H H H H H H G H H H H H H H H H H H H H H H H H H H H H H H H H H H H H "
};
